<svg xmlns="http://www.w3.org/2000/svg" width="1200" height="900" viewBox="0 0 1200 900"><rect width="100%" height="100%" fill="#DDDDDD"/><path fill="#999999" d="M290.395 487.93h18.33v13.04h-56.4v-13.04h20.66V428.5q0-3.53.21-7.27l-14.66 12.27q-1.27.99-2.5 1.24-1.24.24-2.33.03t-1.94-.74-1.27-1.16l-5.5-7.55 31.09-26.43h14.31zm70.15-3.18h26.16q2.82 0 4.47 1.59 1.66 1.59 1.66 4.2v10.43h-69.93v-5.78q0-1.76.74-3.7t2.36-3.49l30.95-31.02q3.87-3.95 6.94-7.55 3.07-3.59 5.11-7.12 2.05-3.52 3.14-7.15t1.09-7.65q0-3.67-1.06-6.45-1.05-2.79-2.99-4.69t-4.65-2.86q-2.72-.95-6.1-.95-3.1 0-5.75.88-2.64.89-4.69 2.47-2.04 1.59-3.45 3.7-1.41 2.12-2.12 4.66-1.19 3.24-3.1 4.3-1.9 1.05-5.5.49l-9.16-1.62q1.06-7.33 4.09-12.87 3.03-5.53 7.58-9.23 4.54-3.7 10.43-5.57t12.65-1.87q7.05 0 12.91 2.08 5.85 2.08 10.01 5.89 4.16 3.8 6.48 9.16 2.33 5.36 2.33 11.91 0 5.64-1.66 10.44-1.65 4.79-4.44 9.16-2.78 4.37-6.52 8.46t-7.83 8.32l-22.98 23.48q3.31-.99 6.59-1.52t6.24-.53M477.575 450q0 13.32-2.85 23.16-2.86 9.83-7.9 16.25-5.04 6.41-11.91 9.55-6.88 3.14-14.84 3.14-7.97 0-14.77-3.14-6.81-3.14-11.81-9.55-5.01-6.42-7.83-16.25-2.82-9.84-2.82-23.16 0-13.4 2.82-23.2t7.83-16.21q5-6.42 11.81-9.55 6.8-3.14 14.77-3.14 7.96 0 14.84 3.14 6.87 3.13 11.91 9.55 5.04 6.41 7.9 16.21 2.85 9.8 2.85 23.2m-17.98 0q0-11.07-1.62-18.33t-4.33-11.56q-2.72-4.3-6.24-6.03-3.53-1.73-7.33-1.73-3.74 0-7.23 1.73t-6.17 6.03-4.26 11.56q-1.59 7.26-1.59 18.33t1.59 18.33q1.58 7.26 4.26 11.56t6.17 6.03 7.23 1.73q3.8 0 7.33-1.73 3.52-1.73 6.24-6.03 2.71-4.3 4.33-11.56t1.62-18.33m99.76 0q0 13.32-2.85 23.16-2.86 9.83-7.9 16.25-5.04 6.41-11.91 9.55-6.88 3.14-14.84 3.14-7.97 0-14.77-3.14-6.81-3.14-11.81-9.55-5.01-6.42-7.83-16.25-2.82-9.84-2.82-23.16 0-13.4 2.82-23.2t7.83-16.21q5-6.42 11.81-9.55 6.8-3.14 14.77-3.14 7.96 0 14.84 3.14 6.87 3.13 11.91 9.55 5.04 6.41 7.9 16.21 2.85 9.8 2.85 23.2m-17.98 0q0-11.07-1.62-18.33t-4.33-11.56q-2.72-4.3-6.24-6.03-3.53-1.73-7.33-1.73-3.74 0-7.23 1.73t-6.17 6.03-4.26 11.56q-1.59 7.26-1.59 18.33t1.59 18.33q1.58 7.26 4.26 11.56t6.17 6.03 7.23 1.73q3.8 0 7.33-1.73 3.52-1.73 6.24-6.03 2.71-4.3 4.33-11.56t1.62-18.33m129.94 27.63-9.24 9.1-23.9-23.9-24.11 24.04-9.24-9.09 24.12-24.19-22.99-22.98 9.17-9.16 22.98 22.98 22.84-22.84 9.31 9.16-22.91 22.91zm65.14-48.01q0 8.53 4.4 13.01 4.41 4.48 12.52 4.48 4.23 0 7.54-1.34 3.32-1.34 5.57-3.67 2.26-2.32 3.42-5.5 1.16-3.17 1.16-6.84 0-4.15-1.27-7.43-1.26-3.28-3.59-5.54-2.33-2.25-5.54-3.45-3.2-1.2-7.01-1.2-3.95 0-7.12 1.3-3.17 1.31-5.43 3.63-2.25 2.33-3.45 5.54t-1.2 7.01m-8.53 71.35 31.65-39.55q1.2-1.48 2.26-2.89t2.04-2.82q-3.52 2.25-7.75 3.42-4.23 1.16-8.89 1.16-5.28 0-10.36-1.83-5.07-1.83-9.02-5.54-3.95-3.7-6.38-9.16-2.44-5.46-2.44-12.8 0-6.84 2.54-12.83t7.12-10.5q4.59-4.51 11-7.12 6.42-2.61 14.17-2.61 7.83 0 14.07 2.47 6.24 2.46 10.64 6.91 4.41 4.44 6.77 10.64t2.36 13.61q0 4.72-.81 8.95t-2.29 8.14q-1.48 3.92-3.6 7.65-2.11 3.74-4.72 7.41l-23.33 33.27q-1.2 1.69-3.6 2.86-2.4 1.16-5.43 1.16zm145.3-50.97q0 13.32-2.86 23.16-2.85 9.83-7.89 16.25-5.04 6.41-11.92 9.55-6.87 3.14-14.84 3.14-7.96 0-14.77-3.14-6.8-3.14-11.81-9.55-5-6.42-7.82-16.25-2.82-9.84-2.82-23.16 0-13.4 2.82-23.2t7.82-16.21q5.01-6.42 11.81-9.55 6.81-3.14 14.77-3.14 7.97 0 14.84 3.14 6.88 3.13 11.92 9.55 5.04 6.41 7.89 16.21 2.86 9.8 2.86 23.2m-17.98 0q0-11.07-1.62-18.33t-4.34-11.56q-2.71-4.3-6.24-6.03-3.52-1.73-7.33-1.73-3.73 0-7.22 1.73t-6.17 6.03-4.27 11.56q-1.58 7.26-1.58 18.33t1.58 18.33q1.59 7.26 4.27 11.56t6.17 6.03 7.22 1.73q3.81 0 7.33-1.73 3.53-1.73 6.24-6.03 2.72-4.3 4.34-11.56t1.62-18.33m99.76 0q0 13.32-2.86 23.16-2.85 9.83-7.89 16.25-5.04 6.41-11.92 9.55-6.87 3.14-14.84 3.14-7.96 0-14.77-3.14-6.8-3.14-11.81-9.55-5-6.42-7.82-16.25-2.82-9.84-2.82-23.16 0-13.4 2.82-23.2t7.82-16.21q5.01-6.42 11.81-9.55 6.81-3.14 14.77-3.14 7.97 0 14.84 3.14 6.88 3.13 11.92 9.55 5.04 6.41 7.89 16.21 2.86 9.8 2.86 23.2m-17.98 0q0-11.07-1.62-18.33t-4.34-11.56q-2.71-4.3-6.24-6.03-3.52-1.73-7.33-1.73-3.73 0-7.22 1.73t-6.17 6.03-4.27 11.56q-1.58 7.26-1.58 18.33t1.58 18.33q1.59 7.26 4.27 11.56t6.17 6.03 7.22 1.73q3.81 0 7.33-1.73 3.53-1.73 6.24-6.03 2.72-4.3 4.34-11.56t1.62-18.33"/></svg>